<svg width="14" height="14" viewBox="0 0 14 14" fill="none" xmlns="http://www.w3.org/2000/svg">
<path d="M13.7293 12.4209L8.30842 7L13.7293 1.57914C14.0902 1.21818 14.0902 0.631691 13.7293 0.270718C13.3683 -0.0902393 12.7818 -0.0902393 12.4209 0.270718L7 5.69158L1.57914 0.270718C1.21818 -0.0902393 0.631691 -0.0902393 0.270718 0.270718C-0.0902393 0.631675 -0.0902393 1.21816 0.270718 1.57914L5.69158 7L0.270718 12.4209C-0.0902393 12.7818 -0.0902393 13.3683 0.270718 13.7293C0.631675 14.0902 1.21816 14.0902 1.57914 13.7293L7 8.30842L12.4209 13.7293C12.7818 14.0902 13.3683 14.0902 13.7293 13.7293C14.0902 13.3683 14.0902 12.7818 13.7293 12.4209Z" fill="#1B1B1B"/>
</svg>
